<svg width="116" height="33" viewBox="0 0 116 33" fill="none" xmlns="http://www.w3.org/2000/svg">
<path d="M0.7775 32V0.859999H13.1254C15.2302 0.859999 16.953 1.28529 18.2938 2.13587C19.6489 2.97204 20.6509 4.04608 21.2996 5.358C21.9628 6.66992 22.2944 8.02508 22.2944 9.4235C22.2944 11.1391 21.8835 12.5952 21.0618 13.7917C20.2544 14.9883 19.1515 15.7957 17.7531 16.2137V15.1325C19.7138 15.5794 21.1987 16.5093 22.2079 17.9221C23.2315 19.335 23.7433 20.9424 23.7433 22.7445C23.7433 24.5898 23.39 26.2045 22.6836 27.5885C21.9772 28.9725 20.9248 30.0537 19.5264 30.8322C18.1424 31.6107 16.4268 32 14.3796 32H0.7775ZM6.054 27.0911H13.7309C14.6391 27.0911 15.4537 26.9109 16.1745 26.5505C16.8953 26.1757 17.4576 25.6567 17.8613 24.9935C18.2793 24.3159 18.4884 23.5158 18.4884 22.5931C18.4884 21.757 18.3082 21.0073 17.9478 20.3441C17.5873 19.681 17.0611 19.1547 16.3691 18.7655C15.6771 18.3618 14.8482 18.16 13.8823 18.16H6.054V27.0911ZM6.054 13.2944H13.0605C13.8102 13.2944 14.4805 13.1502 15.0716 12.8619C15.6627 12.5735 16.1313 12.1482 16.4773 11.586C16.8233 11.0237 16.9963 10.3317 16.9963 9.51C16.9963 8.42875 16.6503 7.52771 15.9583 6.80687C15.2663 6.08604 14.3003 5.72562 13.0605 5.72562H6.054V13.2944ZM38.3773 32.6488C36.0418 32.6488 34.0018 32.1225 32.2574 31.0701C30.513 30.0177 29.1578 28.5688 28.1919 26.7235C27.2404 24.8637 26.7647 22.7301 26.7647 20.3225C26.7647 17.8717 27.2548 15.7236 28.2352 13.8782C29.2155 12.0329 30.5779 10.5912 32.3223 9.55325C34.0667 8.51525 36.085 7.99625 38.3773 7.99625C40.7272 7.99625 42.7744 8.52246 44.5188 9.57487C46.2632 10.6273 47.6184 12.0834 48.5843 13.9431C49.5502 15.7885 50.0332 17.9149 50.0332 20.3225C50.0332 22.7445 49.543 24.8854 48.5627 26.7451C47.5968 28.5905 46.2416 30.0393 44.4972 31.0917C42.7528 32.1297 40.7128 32.6488 38.3773 32.6488ZM38.3773 27.7615C40.4533 27.7615 41.9959 27.0695 43.005 25.6855C44.0142 24.3015 44.5188 22.5138 44.5188 20.3225C44.5188 18.0591 44.007 16.257 42.9834 14.9162C41.9598 13.5611 40.4245 12.8835 38.3773 12.8835C36.9789 12.8835 35.8255 13.2007 34.9173 13.835C34.0235 14.4549 33.3603 15.3271 32.9278 16.4516C32.4953 17.5617 32.279 18.852 32.279 20.3225C32.279 22.5859 32.7908 24.3952 33.8144 25.7504C34.8524 27.0911 36.3734 27.7615 38.3773 27.7615ZM55.2303 32V0.211249H60.4419V32H55.2303ZM76.2832 32.6488C74.1351 32.6488 72.261 32.1081 70.6607 31.0269C69.0605 29.9456 67.8206 28.4751 66.9412 26.6154C66.0618 24.7556 65.6221 22.658 65.6221 20.3225C65.6221 17.9582 66.0618 15.8533 66.9412 14.008C67.835 12.1482 69.0965 10.685 70.7256 9.61812C72.3547 8.53687 74.2721 7.99625 76.4778 7.99625C78.698 7.99625 80.5578 8.53687 82.0571 9.61812C83.5708 10.685 84.717 12.1482 85.4955 14.008C86.274 15.8677 86.6632 17.9726 86.6632 20.3225C86.6632 22.6436 86.274 24.7412 85.4955 26.6154C84.717 28.4751 83.5564 29.9456 82.0138 31.0269C80.4713 32.1081 78.561 32.6488 76.2832 32.6488ZM77.0833 27.9777C78.4818 27.9777 79.6063 27.6606 80.4568 27.0262C81.3218 26.3775 81.949 25.4765 82.3382 24.3231C82.7419 23.1698 82.9437 21.8362 82.9437 20.3225C82.9437 18.7943 82.7419 17.4608 82.3382 16.3219C81.949 15.1685 81.3363 14.2747 80.5001 13.6404C79.6639 12.9916 78.5827 12.6672 77.2563 12.6672C75.8579 12.6672 74.7046 13.0132 73.7963 13.7052C72.8881 14.3828 72.2177 15.3055 71.7852 16.4732C71.3527 17.6266 71.1365 18.9097 71.1365 20.3225C71.1365 21.7497 71.3455 23.0472 71.7636 24.215C72.1961 25.3683 72.852 26.2838 73.7315 26.9614C74.6109 27.639 75.7282 27.9777 77.0833 27.9777ZM82.9437 32V15.6082H82.295V0.859999H87.5498V32H82.9437ZM103.928 32.6488C101.593 32.6488 99.5526 32.1225 97.8082 31.0701C96.0638 30.0177 94.7086 28.5688 93.7427 26.7235C92.7912 24.8637 92.3154 22.7301 92.3154 20.3225C92.3154 17.8717 92.8056 15.7236 93.7859 13.8782C94.7663 12.0329 96.1287 10.5912 97.8731 9.55325C99.6175 8.51525 101.636 7.99625 103.928 7.99625C106.278 7.99625 108.325 8.52246 110.07 9.57487C111.814 10.6273 113.169 12.0834 114.135 13.9431C115.101 15.7885 115.584 17.9149 115.584 20.3225C115.584 22.7445 115.094 24.8854 114.113 26.7451C113.148 28.5905 111.792 30.0393 110.048 31.0917C108.304 32.1297 106.264 32.6488 103.928 32.6488ZM103.928 27.7615C106.004 27.7615 107.547 27.0695 108.556 25.6855C109.565 24.3015 110.07 22.5138 110.07 20.3225C110.07 18.0591 109.558 16.257 108.534 14.9162C107.511 13.5611 105.975 12.8835 103.928 12.8835C102.53 12.8835 101.376 13.2007 100.468 13.835C99.5742 14.4549 98.9111 15.3271 98.4786 16.4516C98.0461 17.5617 97.8298 18.852 97.8298 20.3225C97.8298 22.5859 98.3416 24.3952 99.3652 25.7504C100.403 27.0911 101.924 27.7615 103.928 27.7615Z" fill="#0A2640"/>
</svg>
